<svg width="115" height="69" viewBox="0 0 115 69" fill="none" xmlns="http://www.w3.org/2000/svg">
<path d="M28.8438 23.0844C32.6646 7.80103 42.2167 0.159363 57.5 0.159363C80.425 0.159363 83.2906 17.3531 94.7531 20.2187C102.395 22.1292 109.081 19.2635 114.812 11.6219C110.992 26.9052 101.44 34.5469 86.1562 34.5469C63.2313 34.5469 60.3656 17.3531 48.9031 14.4875C41.2615 12.5771 34.575 15.4427 28.8438 23.0844ZM0.1875 57.4719C4.00833 42.1885 13.5604 34.5469 28.8438 34.5469C51.7687 34.5469 54.6344 51.7406 66.0969 54.6062C73.7385 56.5167 80.425 53.651 86.1562 46.0094C82.3354 61.2927 72.7833 68.9344 57.5 68.9344C34.575 68.9344 31.7094 51.7406 20.2469 48.875C12.6052 46.9646 5.91875 49.8302 0.1875 57.4719Z" fill="#44A8B3"/>
</svg>
